<svg xmlns="http://www.w3.org/2000/svg" width="512" height="208" viewBox="0 0 512 208">
  
  <path id="Preenchimento_de_Cor_1" data-name="Preenchimento de Cor 1" class="cls-1" d="M486,176c0.06,2.9.048,5.468-1,7v-7c-157.737,0-320.571-.074-475,0a369.979,369.979,0,0,1-2-42V111c-2.013-9.41-1.8-26.546,0-36,6.308-3.744,31.332-16.684,34-22-3.126-4.069-9.886-33.756-10-41h2c4.4-2.238,17.1,2.619,23,3h85c9.6-2.152,21.2-1.069,31-4,1.837-.55,4.725-3.564,6-4,3.355-1.147,24.058,4.066,28,5l54,2c14.5,0.286,38.37-.647,51-4,3.8-1.009,11.986-5.228,17-4,4.245,1.04,12.008,4.711,17,6,7.158,1.848,15.614.539,22,2h18c16.172,3.631,37.431-.6,55,2,10.736,1.589,25.726-2.3,31,0,4.059,1.657,3.326,6.4,3,12-2.128,2.906-9.39,25.058-9,26,8.552,7.983,26.875,15.638,38,21,1.942,15.964,2.336,42.548-1,58v28c-1.007,4.609-2.045,11.852-3,16h-1C495.634,173.918,491.327,175.579,486,176Z"/>
</svg>
